{
  "accessors": [
    {
      "bufferView": 2,
      "componentType": 5126,
      "count": 20688,
      "max": [
        2.80635666847229,
        0.3508087396621704,
        0.030000247061252594
      ],
      "min": [
        -2.8650715351104736,
        -0.2810594141483307,
        -0.029999779537320137
      ],
      "type": "VEC3"
    },
    {
      "bufferView": 2,
      "byteOffset": 248256,
      "componentType": 5126,
      "count": 20688,
      "type": "VEC3"
    },
    {
      "bufferView": 1,
      "componentType": 5126,
      "count": 20688,
      "type": "VEC2"
    },
    {
      "bufferView": 0,
      "componentType": 5125,
      "count": 34074,
      "type": "SCALAR"
    },
    {
      "bufferView": 4,
      "componentType": 5126,
      "count": 250,
      "max": [
        10.416666984558105
      ],
      "min": [
        0.0416666679084301
      ],
      "type": "SCALAR"
    },
    {
      "bufferView": 3,
      "componentType": 5126,
      "count": 250,
      "type": "VEC4"
    }
  ],
  "animations": [
    {
      "channels": [
        {
          "sampler": 0,
          "target": {
            "node": 3,
            "path": "rotation"
          }
        }
      ],
      "name": "TextAction",
      "samplers": [
        {
          "input": 4,
          "interpolation": "LINEAR",
          "output": 5
        }
      ]
    }
  ],
  "asset": {
    "generator": "fab-model-conversion",
    "version": "2.0"
  },
  "bufferViews": [
    {
      "buffer": 0,
      "byteLength": 136296,
      "target": 34963
    },
    {
      "buffer": 0,
      "byteLength": 165504,
      "byteOffset": 136296,
      "byteStride": 8,
      "target": 34962
    },
    {
      "buffer": 0,
      "byteLength": 496512,
      "byteOffset": 301800,
      "byteStride": 12,
      "target": 34962
    },
    {
      "buffer": 0,
      "byteLength": 4000,
      "byteOffset": 798312
    },
    {
      "buffer": 0,
      "byteLength": 1000,
      "byteOffset": 802312
    }
  ],
  "buffers": [
    {
      "byteLength": 803312,
      "uri": "scene.bin"
    }
  ],
  "extensionsUsed": [
    "KHR_materials_emissive_strength",
    "KHR_materials_specular"
  ],
  "materials": [
    {
      "doubleSided": true,
      "emissiveFactor": [
        0.07353226603512872,
        0.775209617965722,
        0.004827453069874877
      ],
      "extensions": {
        "KHR_materials_emissive_strength": {
          "emissiveStrength": 3.762191704918239
        },
        "KHR_materials_specular": {
          "specularFactor": 0.4643709426572722
        }
      },
      "name": "emission",
      "pbrMetallicRoughness": {
        "baseColorFactor": [
          0.8397505314154134,
          0.8834365490119371,
          0.8473885324580582,
          1.0
        ],
        "metallicFactor": 0.2628811777076761,
        "roughnessFactor": 0.7119326016736244
      }
    }
  ],
  "meshes": [
    {
      "name": "Object_0",
      "primitives": [
        {
          "attributes": {
            "NORMAL": 1,
            "POSITION": 0,
            "TEXCOORD_0": 2
          },
          "indices": 3,
          "material": 0,
          "mode": 4
        }
      ]
    }
  ],
  "nodes": [
    {
      "children": [
        1
      ],
      "matrix": [
        1.0,
        0.0,
        0.0,
        0.0,
        0.0,
        2.220446049250313e-16,
        -1.0,
        0.0,
        0.0,
        1.0,
        2.220446049250313e-16,
        0.0,
        0.0,
        0.0,
        0.0,
        1.0
      ],
      "name": "Sketchfab_model"
    },
    {
      "children": [
        2
      ],
      "name": "root"
    },
    {
      "children": [
        3
      ],
      "matrix": [
        1.0,
        0.0,
        0.0,
        0.0,
        0.0,
        2.220446049250313e-16,
        1.0,
        0.0,
        0.0,
        -1.0,
        2.220446049250313e-16,
        0.0,
        0.0,
        0.0,
        0.0,
        1.0
      ],
      "name": "GLTF_SceneRootNode"
    },
    {
      "children": [
        4
      ],
      "name": "Text_0",
      "rotation": [
        0.0,
        0.0,
        0.0,
        1.0
      ],
      "scale": [
        1.0,
        1.0,
        1.0
      ],
      "translation": [
        2.9533793926239014,
        0.2560693025588989,
        -0.002854448975995183
      ]
    },
    {
      "mesh": 0,
      "name": "Object_4"
    }
  ],
  "scene": 0,
  "scenes": [
    {
      "name": "Sketchfab_Scene",
      "nodes": [
        0
      ]
    }
  ]
}
